<?xml version="1.0" encoding="UTF-8" standalone="no"?>
<svg
   xmlns:dc="http://purl.org/dc/elements/1.1/"
   xmlns:cc="http://creativecommons.org/ns#"
   xmlns:rdf="http://www.w3.org/1999/02/22-rdf-syntax-ns#"
   xmlns:svg="http://www.w3.org/2000/svg"
   xmlns="http://www.w3.org/2000/svg"
   xmlns:xlink="http://www.w3.org/1999/xlink"
   xmlns:sodipodi="http://sodipodi.sourceforge.net/DTD/sodipodi-0.dtd"
   xmlns:inkscape="http://www.inkscape.org/namespaces/inkscape"
   sodipodi:docname="logo.svg"
   inkscape:version="1.0 (4035a4fb49, 2020-05-01)"
   id="svg8"
   version="1.1"
   viewBox="0 0 122.21552 22.576521"
   height="22.576521mm"
   width="122.21551mm">
  <defs
     id="defs2">
    <linearGradient
       id="linearGradient899"
       inkscape:collect="always">
      <stop
         id="stop895"
         offset="0"
         style="stop-color:#000000;stop-opacity:1;" />
      <stop
         id="stop897"
         offset="1"
         style="stop-color:#000000;stop-opacity:0;" />
    </linearGradient>
    <linearGradient
       gradientUnits="userSpaceOnUse"
       y2="109.81509"
       x2="27.917908"
       y1="96.377281"
       x1="14.480096"
       id="linearGradient901"
       xlink:href="#linearGradient899"
       inkscape:collect="always" />
  </defs>
  <sodipodi:namedview
     inkscape:window-maximized="1"
     inkscape:window-y="-9"
     inkscape:window-x="2039"
     inkscape:window-height="1378"
     inkscape:window-width="2560"
     fit-margin-bottom="0"
     fit-margin-right="0"
     fit-margin-left="0"
     fit-margin-top="0"
     inkscape:snap-global="false"
     showgrid="false"
     inkscape:document-rotation="0"
     inkscape:current-layer="layer1"
     inkscape:document-units="mm"
     inkscape:cy="67.104045"
     inkscape:cx="296.61634"
     inkscape:zoom="1.979899"
     inkscape:pageshadow="2"
     inkscape:pageopacity="0"
     borderopacity="1.0"
     bordercolor="#666666"
     pagecolor="#202020"
     id="base">
    <inkscape:grid
       originy="-102.32739"
       originx="-20.902089"
       id="grid837"
       type="xygrid" />
  </sodipodi:namedview>
  <metadata
     id="metadata5">
    <rdf:RDF>
      <cc:Work
         rdf:about="">
        <dc:format>image/svg+xml</dc:format>
        <dc:type
           rdf:resource="http://purl.org/dc/dcmitype/StillImage" />
        <dc:title></dc:title>
      </cc:Work>
    </rdf:RDF>
  </metadata>
  <g
     transform="translate(-20.902084,-102.32739)"
     id="layer1"
     inkscape:groupmode="layer"
     inkscape:label="Layer 1">
    <path
       sodipodi:nodetypes="ccscsccscsscsccscsscscc"
       d="m 20.943397,119.71101 v -13.09512 h 17.294595 c 0.767645,0 1.414876,0.27093 1.941691,0.8128 0.526815,0.52681 0.790223,1.16652 0.790223,1.91911 v 10.36321 H 39.141104 V 109.3478 c 0,-0.24083 -0.09031,-0.44403 -0.270933,-0.6096 -0.180623,-0.18062 -0.391349,-0.27093 -0.632179,-0.27093 h -5.44125 c -0.24083,0 -0.451556,0.0903 -0.632178,0.27093 -0.165571,0.16557 -0.248356,0.36877 -0.248356,0.6096 v 10.36321 H 30.04225 V 109.3478 c 0,-0.24083 -0.09031,-0.44403 -0.270933,-0.6096 -0.165571,-0.18062 -0.368771,-0.27093 -0.609601,-0.27093 h -5.463828 c -0.240829,0 -0.451555,0.0903 -0.632178,0.27093 -0.165571,0.16557 -0.248356,0.36877 -0.248356,0.6096 v 10.36321 z"
       style="font-style:normal;font-variant:normal;font-weight:normal;font-stretch:normal;font-size:22.5778px;line-height:1.25;font-family:Orbitron;-inkscape-font-specification:Orbitron;letter-spacing:0px;word-spacing:0px;fill:#ffffff;fill-opacity:1;stroke-width:0.264583"
       id="path850" />
    <path
       sodipodi:nodetypes="ccscsssscccssssscsscsscs"
       d="m 43.036128,124.90391 v -18.28802 h 10.611567 c 0.752593,0 1.392298,0.27093 1.919113,0.8128 0.541867,0.52681 0.8128,1.16652 0.8128,1.91911 v 7.6313 c 0,0.75259 -0.270933,1.39982 -0.8128,1.94169 -0.526815,0.52681 -1.16652,0.79022 -1.919113,0.79022 h -8.760187 v 5.1929 z m 2.754492,-7.04428 h 7.857075 c 0.240829,0 0.444029,-0.0828 0.6096,-0.24835 0.180623,-0.18063 0.270934,-0.39135 0.270934,-0.63218 v -7.6313 c 0,-0.24083 -0.09031,-0.44403 -0.270934,-0.6096 -0.165571,-0.18062 -0.368771,-0.27093 -0.6096,-0.27093 H 45.79062 c -0.24083,0 -0.451556,0.0903 -0.632179,0.27093 -0.180622,0.16557 -0.270933,0.36877 -0.270933,0.6096 v 7.6313 c 0,0.24083 0.09031,0.45155 0.270933,0.63218 0.180623,0.16557 0.391349,0.24835 0.632179,0.24835 z"
       style="font-style:normal;font-variant:normal;font-weight:normal;font-stretch:normal;font-size:22.5778px;line-height:1.25;font-family:Orbitron;-inkscape-font-specification:Orbitron;letter-spacing:0px;word-spacing:0px;fill:#ffffff;fill-opacity:1;stroke-width:0.264583"
       id="path852" />
    <path
       sodipodi:nodetypes="scsccscsscsccssss"
       d="m 60.738533,119.71101 c -0.752593,0 -1.399824,-0.26341 -1.941691,-0.79022 -0.526815,-0.54187 -0.790223,-1.1891 -0.790223,-1.94169 v -10.36321 h 1.85138 v 10.36321 c 0,0.24083 0.08279,0.45155 0.248356,0.63218 0.180622,0.16557 0.391348,0.24835 0.632178,0.24835 h 7.857075 c 0.240829,0 0.451555,-0.0828 0.632178,-0.24835 0.180623,-0.18063 0.270934,-0.39135 0.270934,-0.63218 v -10.36321 h 1.851379 v 10.36321 c 0,0.75259 -0.270933,1.39982 -0.8128,1.94169 -0.526816,0.52681 -1.174046,0.79022 -1.941691,0.79022 z"
       style="font-style:normal;font-variant:normal;font-weight:normal;font-stretch:normal;font-size:22.5778px;line-height:1.25;font-family:Orbitron;-inkscape-font-specification:Orbitron;letter-spacing:0px;word-spacing:0px;fill:#ffffff;fill-opacity:1;stroke-width:0.264583"
       id="path854" />
    <path
       sodipodi:nodetypes="csssccssscc"
       d="M 73.682673,119.71101 V 109.3478 c 0,-0.75259 0.263408,-1.3923 0.790223,-1.91911 0.541867,-0.54187 1.189097,-0.8128 1.94169,-0.8128 h 7.360364 v 1.85138 h -7.360364 c -0.240829,0 -0.451555,0.0903 -0.632178,0.27093 -0.165571,0.16557 -0.248356,0.36877 -0.248356,0.6096 v 10.36321 z"
       style="font-style:normal;font-variant:normal;font-weight:normal;font-stretch:normal;font-size:22.5778px;line-height:1.25;font-family:Orbitron;-inkscape-font-specification:Orbitron;letter-spacing:0px;word-spacing:0px;fill:#ffffff;fill-opacity:1;stroke-width:0.264583"
       id="path856" />
    <path
       sodipodi:nodetypes="scssssscsccscsccsccscssssc"
       d="m 87.945491,119.71101 c -0.752593,0 -1.399824,-0.26341 -1.941691,-0.79022 -0.526815,-0.54187 -0.790223,-1.1891 -0.790223,-1.94169 v -7.6313 c 0,-0.75259 0.263408,-1.3923 0.790223,-1.91911 0.541867,-0.54187 1.189098,-0.8128 1.941691,-0.8128 h 7.857074 c 0.767645,0 1.414876,0.27093 1.941691,0.8128 0.541867,0.52681 0.812801,1.16652 0.812801,1.91911 v 4.74134 H 87.064956 v 2.88996 c 0,0.24083 0.08279,0.45155 0.248356,0.63218 0.180623,0.16557 0.391349,0.24835 0.632179,0.24835 h 10.611566 v 1.85138 z m -0.880535,-7.47325 H 96.6831 v -2.88996 c 0,-0.24083 -0.09031,-0.44403 -0.270934,-0.6096 -0.165571,-0.18062 -0.368771,-0.27093 -0.609601,-0.27093 h -7.857074 c -0.24083,0 -0.451556,0.0903 -0.632179,0.27093 -0.165571,0.16557 -0.248356,0.36877 -0.248356,0.6096 z"
       style="font-style:normal;font-variant:normal;font-weight:normal;font-stretch:normal;font-size:22.5778px;line-height:1.25;font-family:Orbitron;-inkscape-font-specification:Orbitron;letter-spacing:0px;word-spacing:0px;fill:#ffffff;fill-opacity:1;stroke-width:0.264583"
       id="path858" />
    <path
       sodipodi:nodetypes="ccccc"
       d="m 101.28728,119.71101 v -1.85138 h 1.85138 v 1.85138 z"
       style="font-style:normal;font-variant:normal;font-weight:normal;font-stretch:normal;font-size:22.5778px;line-height:1.25;font-family:Orbitron;-inkscape-font-specification:Orbitron;letter-spacing:0px;word-spacing:0px;fill:#ffffff;fill-opacity:1;stroke-width:0.264583"
       id="path860" />
    <path
       d="m 105.71986,119.71101 v -10.41966 c 0,-0.76764 0.26341,-1.41487 0.79022,-1.94169 0.52682,-0.52681 1.17405,-0.79022 1.94169,-0.79022 h 7.4592 v 1.85138 h -7.4592 c -0.24083,0 -0.45155,0.0903 -0.63217,0.27093 -0.16557,0.16558 -0.24836,0.36878 -0.24836,0.6096 v 3.14537 h 8.33973 v 1.85138 h -8.33973 v 5.42291 z"
       style="font-style:normal;font-variant:normal;font-weight:normal;font-stretch:normal;font-size:22.5778px;line-height:1.25;font-family:Orbitron;-inkscape-font-specification:Orbitron;letter-spacing:0px;word-spacing:0px;fill:#ffffff;fill-opacity:1;stroke-width:0.264583"
       id="path862"
       sodipodi:nodetypes="csssccssscccccc" />
    <path
       d="m 121.0195,119.71101 c -0.75259,0 -1.39982,-0.26341 -1.94169,-0.79022 -0.52682,-0.54187 -0.75185,-1.19008 -0.79023,-1.94169 v -10.36321 h 1.85138 v 10.36321 c 0,0.24083 0.0828,0.45155 0.24836,0.63218 0.18062,0.16557 0.39135,0.24835 0.63218,0.24835 h 7.85707 c 0.24083,0 0.45156,-0.0828 0.63218,-0.24835 0.18062,-0.18063 0.28321,-0.39167 0.27093,-0.63218 v -10.36321 h 1.85138 v 10.36321 c 0,0.75259 -0.27093,1.39982 -0.8128,1.94169 -0.52681,0.52681 -1.17404,0.79022 -1.94169,0.79022 z"
       style="font-style:normal;font-variant:normal;font-weight:normal;font-stretch:normal;font-size:22.5778px;line-height:1.25;font-family:Orbitron;-inkscape-font-specification:Orbitron;letter-spacing:0px;word-spacing:0px;fill:#ffffff;fill-opacity:1;stroke-width:0.264583"
       id="path864"
       sodipodi:nodetypes="scsccscsscsccssss" />
    <path
       d="m 129.77411,116.53601 v -9.92012 h 10.61157 c 0.75259,0 1.3923,0.27093 1.91911,0.8128 0.54187,0.52681 0.8128,1.16652 0.8128,1.91911 v 10.36321 h -1.85138 V 109.3478 c 0,-0.24083 -0.0903,-0.44403 -0.27093,-0.6096 -0.16557,-0.18062 -0.36877,-0.27093 -0.6096,-0.27093 h -7.85708 c -0.24083,0 -0.45155,0.0903 -0.63218,0.27093 -0.18062,0.16557 -0.27093,0.36877 -0.27093,0.6096 v 7.18821 z"
       style="font-style:normal;font-variant:normal;font-weight:normal;font-stretch:normal;font-size:22.5778px;line-height:1.25;font-family:Orbitron;-inkscape-font-specification:Orbitron;letter-spacing:0px;word-spacing:0px;fill:#ffffff;fill-opacity:1;stroke-width:0.264583"
       id="path866"
       sodipodi:nodetypes="ccscsccscsscscc" />
    <g
       style="font-size:10.5833px;line-height:1.25;font-family:sans-serif;-inkscape-font-specification:sans-serif;letter-spacing:0px;word-spacing:0px;stroke-width:0.264583"
       id="text841"
       aria-label="i">
      <path
         sodipodi:nodetypes="ccccc"
         id="path843"
         style="fill:#ffffff;fill-opacity:1;stroke-width:0.462262"
         d="m 22.816134,104.08794 h -1.91405 v -1.76055 h 1.91405 z" />
    </g>
    <rect
       inkscape:export-ydpi="452.13953"
       inkscape:export-xdpi="452.13953"
       inkscape:export-filename="C:\Users\lfr\source\repos\lfr.github.io\public\favicon.png"
       y="96.43853"
       x="14.484124"
       height="28.475344"
       width="28.471186"
       id="rect869"
       style="fill:#ffffff;fill-opacity:0;stroke:url(#linearGradient901);stroke-width:0.275327;stroke-opacity:1" />
  </g>
</svg>
