<?xml version="1.0" encoding="UTF-8" standalone="no"?>
<svg
   xmlns:dc="http://purl.org/dc/elements/1.1/"
   xmlns:cc="http://creativecommons.org/ns#"
   xmlns:rdf="http://www.w3.org/1999/02/22-rdf-syntax-ns#"
   xmlns:svg="http://www.w3.org/2000/svg"
   xmlns="http://www.w3.org/2000/svg"
   xmlns:sodipodi="http://sodipodi.sourceforge.net/DTD/sodipodi-0.dtd"
   xmlns:inkscape="http://www.inkscape.org/namespaces/inkscape"
   sodipodi:docname="logo.svg"
   inkscape:version="1.0 (4035a4fb49, 2020-05-01)"
   id="svg8"
   version="1.1"
   viewBox="0 0 119.04051 22.577801"
   height="22.577801mm"
   width="119.0405mm">
  <defs
     id="defs2" />
  <sodipodi:namedview
     inkscape:window-maximized="1"
     inkscape:window-y="-9"
     inkscape:window-x="2039"
     inkscape:window-height="1378"
     inkscape:window-width="2560"
     fit-margin-bottom="0"
     fit-margin-right="0"
     fit-margin-left="0"
     fit-margin-top="0"
     inkscape:snap-global="false"
     showgrid="false"
     inkscape:document-rotation="0"
     inkscape:current-layer="layer1"
     inkscape:document-units="mm"
     inkscape:cy="35.970895"
     inkscape:cx="352.65196"
     inkscape:zoom="1.979899"
     inkscape:pageshadow="2"
     inkscape:pageopacity="0"
     borderopacity="1.0"
     bordercolor="#666666"
     pagecolor="#202020"
     id="base">
    <inkscape:grid
       originy="-102.32611"
       originx="-20.902086"
       id="grid837"
       type="xygrid" />
  </sodipodi:namedview>
  <metadata
     id="metadata5">
    <rdf:RDF>
      <cc:Work
         rdf:about="">
        <dc:format>image/svg+xml</dc:format>
        <dc:type
           rdf:resource="http://purl.org/dc/dcmitype/StillImage" />
        <dc:title></dc:title>
      </cc:Work>
    </rdf:RDF>
  </metadata>
  <g
     transform="translate(-20.902084,-102.32611)"
     id="layer1"
     inkscape:groupmode="layer"
     inkscape:label="Layer 1">
    <g
       style="font-style:normal;font-variant:normal;font-weight:normal;font-stretch:normal;font-size:22.5778px;line-height:1.25;font-family:Orbitron;-inkscape-font-specification:Orbitron;letter-spacing:0px;word-spacing:0px;fill:#ffffff;fill-opacity:1;stroke-width:0.264583"
       id="text835"
       aria-label="mpure.fun">
      <path
         id="path850"
         style="font-style:normal;font-variant:normal;font-weight:normal;font-stretch:normal;font-size:22.5778px;font-family:Orbitron;-inkscape-font-specification:Orbitron;fill:#ffffff;fill-opacity:1;stroke-width:0.264583"
         d="m 20.943397,119.71101 v -13.09512 h 17.294595 q 1.151468,0 1.941691,0.8128 0.790223,0.79022 0.790223,1.91911 v 10.36321 H 39.141104 V 109.3478 q 0,-0.36124 -0.270933,-0.6096 -0.270934,-0.27093 -0.632179,-0.27093 h -5.44125 q -0.361245,0 -0.632178,0.27093 -0.248356,0.24836 -0.248356,0.6096 v 10.36321 H 30.04225 V 109.3478 q 0,-0.36124 -0.270933,-0.6096 -0.248356,-0.27093 -0.609601,-0.27093 h -5.463828 q -0.361244,0 -0.632178,0.27093 -0.248356,0.24836 -0.248356,0.6096 v 10.36321 z" />
      <path
         id="path852"
         style="font-style:normal;font-variant:normal;font-weight:normal;font-stretch:normal;font-size:22.5778px;font-family:Orbitron;-inkscape-font-specification:Orbitron;fill:#ffffff;fill-opacity:1;stroke-width:0.264583"
         d="m 43.036128,124.90391 v -18.28802 h 10.611567 q 1.12889,0 1.919113,0.8128 0.8128,0.79022 0.8128,1.91911 v 7.6313 q 0,1.12889 -0.8128,1.94169 -0.790223,0.79022 -1.919113,0.79022 h -8.760187 v 5.1929 z m 2.754492,-7.04428 h 7.857075 q 0.361244,0 0.6096,-0.24835 0.270934,-0.27094 0.270934,-0.63218 v -7.6313 q 0,-0.36124 -0.270934,-0.6096 -0.248356,-0.27093 -0.6096,-0.27093 H 45.79062 q -0.361245,0 -0.632179,0.27093 -0.270933,0.24836 -0.270933,0.6096 v 7.6313 q 0,0.36124 0.270933,0.63218 0.270934,0.24835 0.632179,0.24835 z" />
      <path
         id="path854"
         style="font-style:normal;font-variant:normal;font-weight:normal;font-stretch:normal;font-size:22.5778px;font-family:Orbitron;-inkscape-font-specification:Orbitron;fill:#ffffff;fill-opacity:1;stroke-width:0.264583"
         d="m 60.738533,119.71101 q -1.12889,0 -1.941691,-0.79022 -0.790223,-0.8128 -0.790223,-1.94169 v -10.36321 h 1.85138 v 10.36321 q 0,0.36124 0.248356,0.63218 0.270933,0.24835 0.632178,0.24835 h 7.857075 q 0.361244,0 0.632178,-0.24835 0.270934,-0.27094 0.270934,-0.63218 v -10.36321 h 1.851379 v 10.36321 q 0,1.12889 -0.8128,1.94169 -0.790224,0.79022 -1.941691,0.79022 z" />
      <path
         id="path856"
         style="font-style:normal;font-variant:normal;font-weight:normal;font-stretch:normal;font-size:22.5778px;font-family:Orbitron;-inkscape-font-specification:Orbitron;fill:#ffffff;fill-opacity:1;stroke-width:0.264583"
         d="M 73.682673,119.71101 V 109.3478 q 0,-1.12889 0.790223,-1.91911 0.8128,-0.8128 1.94169,-0.8128 h 7.360364 v 1.85138 h -7.360364 q -0.361244,0 -0.632178,0.27093 -0.248356,0.24836 -0.248356,0.6096 v 10.36321 z" />
      <path
         id="path858"
         style="font-style:normal;font-variant:normal;font-weight:normal;font-stretch:normal;font-size:22.5778px;font-family:Orbitron;-inkscape-font-specification:Orbitron;fill:#ffffff;fill-opacity:1;stroke-width:0.264583"
         d="m 87.945491,119.71101 q -1.12889,0 -1.941691,-0.79022 -0.790223,-0.8128 -0.790223,-1.94169 v -7.6313 q 0,-1.12889 0.790223,-1.91911 0.812801,-0.8128 1.941691,-0.8128 h 7.857074 q 1.151468,0 1.941691,0.8128 0.812801,0.79022 0.812801,1.91911 v 4.74134 H 87.064956 v 2.88996 q 0,0.36124 0.248356,0.63218 0.270934,0.24835 0.632179,0.24835 h 10.611566 v 1.85138 z m -0.880535,-7.47325 H 96.6831 v -2.88996 q 0,-0.36124 -0.270934,-0.6096 -0.248356,-0.27093 -0.609601,-0.27093 h -7.857074 q -0.361245,0 -0.632179,0.27093 -0.248356,0.24836 -0.248356,0.6096 z" />
      <path
         id="path860"
         style="font-style:normal;font-variant:normal;font-weight:normal;font-stretch:normal;font-size:22.5778px;font-family:Orbitron;-inkscape-font-specification:Orbitron;fill:#ffffff;fill-opacity:1;stroke-width:0.264583"
         d="m 100.89175,119.71101 v -1.85138 h 1.85138 v 1.85138 z" />
      <path
         id="path862"
         style="font-style:normal;font-variant:normal;font-weight:normal;font-stretch:normal;font-size:22.5778px;font-family:Orbitron;-inkscape-font-specification:Orbitron;fill:#ffffff;fill-opacity:1;stroke-width:0.264583"
         d="m 105.71986,119.71101 v -14.65299 q 0,-1.15147 0.79022,-1.94169 0.79023,-0.79022 1.94169,-0.79022 h 4.7865 v 1.85138 h -4.7865 q -0.36124,0 -0.63217,0.27093 -0.24836,0.24836 -0.24836,0.6096 v 1.55787 h 5.66703 v 1.85138 h -5.66703 v 11.24374 z" />
      <path
         sodipodi:nodetypes="scsccscsscsccssss"
         id="path864"
         style="font-style:normal;font-variant:normal;font-weight:normal;font-stretch:normal;font-size:22.5778px;font-family:Orbitron;-inkscape-font-specification:Orbitron;fill:#ffffff;fill-opacity:1;stroke-width:0.264583"
         d="m 117.8445,119.71101 c -0.75259,0 -1.39982,-0.26341 -1.94169,-0.79022 -0.52682,-0.54187 -0.79023,-1.1891 -0.79023,-1.94169 v -10.36321 h 1.85138 v 10.36321 c 0,0.24083 0.0828,0.45155 0.24836,0.63218 0.18062,0.16557 0.39135,0.24835 0.63218,0.24835 h 7.85707 c 0.24083,0 0.45156,-0.0828 0.63218,-0.24835 0.18062,-0.18063 0.28321,-0.39167 0.27093,-0.63218 v -10.36321 h 1.85138 v 10.36321 c 0,0.75259 -0.27093,1.39982 -0.8128,1.94169 -0.52681,0.52681 -1.17404,0.79022 -1.94169,0.79022 z" />
      <path
         sodipodi:nodetypes="ccscsccscsscscc"
         id="path866"
         style="font-style:normal;font-variant:normal;font-weight:normal;font-stretch:normal;font-size:22.5778px;font-family:Orbitron;-inkscape-font-specification:Orbitron;fill:#ffffff;fill-opacity:1;stroke-width:0.264583"
         d="m 126.59911,116.53601 v -9.92012 h 10.61157 c 0.75259,0 1.3923,0.27093 1.91911,0.8128 0.54187,0.52681 0.81038,1.16652 0.8128,1.91911 v 10.36321 h -1.85138 V 109.3478 c 0,-0.24083 -0.0903,-0.44403 -0.27093,-0.6096 -0.16557,-0.18062 -0.36877,-0.27093 -0.6096,-0.27093 h -7.85708 c -0.24083,0 -0.45155,0.0903 -0.63218,0.27093 -0.18062,0.16557 -0.27205,0.36877 -0.27093,0.6096 v 7.18821 z" />
    </g>
    <g
       style="font-size:10.5833px;line-height:1.25;font-family:sans-serif;-inkscape-font-specification:sans-serif;letter-spacing:0px;word-spacing:0px;stroke-width:0.264583"
       id="text841"
       aria-label="i">
      <path
         sodipodi:nodetypes="ccccc"
         id="path843"
         style="fill:#ffffff;fill-opacity:1;stroke-width:0.462262"
         d="m 22.816134,104.08794 h -1.91405 v -1.76055 h 1.91405 z" />
    </g>
  </g>
</svg>
